<mxfile host="app.diagrams.net" modified="2024-07-01T07:39:28.271Z" agent="Mozilla/5.0 (Windows NT 10.0; Win64; x64) AppleWebKit/537.36 (KHTML, like Gecko) Chrome/126.0.0.0 Safari/537.36" etag="qpe3fM9-0-VJej5L2DRA" version="24.6.4" type="github">
  <diagram name="第 1 页" id="nnVzriY817aK6upAByUt">
    <mxGraphModel dx="1259" dy="1487" grid="1" gridSize="10" guides="1" tooltips="1" connect="1" arrows="1" fold="1" page="1" pageScale="1" pageWidth="1169" pageHeight="827" math="0" shadow="0">
      <root>
        <mxCell id="0" />
        <mxCell id="1" parent="0" />
        <mxCell id="ZxG8DOypIiTcq-T04Ppu-1" value="" style="swimlane;startSize=0;strokeColor=default;dashed=1;" parent="1" vertex="1">
          <mxGeometry x="100" y="-133" width="190" height="324" as="geometry" />
        </mxCell>
        <mxCell id="ZxG8DOypIiTcq-T04Ppu-2" value="&lt;font style=&quot;font-size: 14px;&quot;&gt;web应用1&lt;/font&gt;" style="rounded=0;whiteSpace=wrap;html=1;fillColor=#dae8fc;strokeColor=#6c8ebf;" parent="ZxG8DOypIiTcq-T04Ppu-1" vertex="1">
          <mxGeometry x="25" y="36" width="115" height="50" as="geometry" />
        </mxCell>
        <mxCell id="ZxG8DOypIiTcq-T04Ppu-4" value="&lt;font style=&quot;font-size: 14px;&quot;&gt;web应用2&lt;/font&gt;" style="rounded=0;whiteSpace=wrap;html=1;fillColor=#dae8fc;strokeColor=#6c8ebf;" parent="ZxG8DOypIiTcq-T04Ppu-1" vertex="1">
          <mxGeometry x="25" y="110" width="115" height="50" as="geometry" />
        </mxCell>
        <mxCell id="ZxG8DOypIiTcq-T04Ppu-5" value="&lt;font style=&quot;font-size: 14px;&quot;&gt;web应用3&lt;/font&gt;" style="rounded=0;whiteSpace=wrap;html=1;fillColor=#dae8fc;strokeColor=#6c8ebf;" parent="ZxG8DOypIiTcq-T04Ppu-1" vertex="1">
          <mxGeometry x="25" y="178" width="115" height="50" as="geometry" />
        </mxCell>
        <mxCell id="ZxG8DOypIiTcq-T04Ppu-6" value="&lt;b style=&quot;font-size: 15px;&quot;&gt;......&lt;/b&gt;" style="rounded=0;whiteSpace=wrap;html=1;fillColor=#dae8fc;strokeColor=#6c8ebf;fontSize=15;" parent="ZxG8DOypIiTcq-T04Ppu-1" vertex="1">
          <mxGeometry x="25" y="250" width="115" height="50" as="geometry" />
        </mxCell>
        <mxCell id="ZxG8DOypIiTcq-T04Ppu-7" value="agent" style="rounded=1;whiteSpace=wrap;html=1;fillColor=#f8cecc;strokeColor=#b85450;" parent="ZxG8DOypIiTcq-T04Ppu-1" vertex="1">
          <mxGeometry x="120" y="46" width="50" height="30" as="geometry" />
        </mxCell>
        <mxCell id="ZxG8DOypIiTcq-T04Ppu-8" value="agent" style="rounded=1;whiteSpace=wrap;html=1;fillColor=#f8cecc;strokeColor=#b85450;" parent="ZxG8DOypIiTcq-T04Ppu-1" vertex="1">
          <mxGeometry x="120" y="120" width="50" height="30" as="geometry" />
        </mxCell>
        <mxCell id="ZxG8DOypIiTcq-T04Ppu-9" value="agent" style="rounded=1;whiteSpace=wrap;html=1;fillColor=#f8cecc;strokeColor=#b85450;" parent="ZxG8DOypIiTcq-T04Ppu-1" vertex="1">
          <mxGeometry x="120" y="188" width="50" height="30" as="geometry" />
        </mxCell>
        <mxCell id="ZxG8DOypIiTcq-T04Ppu-10" value="agent" style="rounded=1;whiteSpace=wrap;html=1;fillColor=#f8cecc;strokeColor=#b85450;" parent="ZxG8DOypIiTcq-T04Ppu-1" vertex="1">
          <mxGeometry x="120" y="260" width="50" height="30" as="geometry" />
        </mxCell>
        <mxCell id="ZxG8DOypIiTcq-T04Ppu-16" value="&lt;h1 style=&quot;margin-top: 0px;&quot;&gt;rasp防护应用&lt;/h1&gt;&lt;p&gt;需要安装rasp客户端&lt;/p&gt;" style="text;html=1;whiteSpace=wrap;overflow=hidden;rounded=0;" parent="1" vertex="1">
          <mxGeometry x="112.5" y="-170" width="165" height="80" as="geometry" />
        </mxCell>
        <mxCell id="ZxG8DOypIiTcq-T04Ppu-24" value="&lt;span style=&quot;font-size: 15px;&quot;&gt;rasp云端服务&lt;/span&gt;" style="swimlane;whiteSpace=wrap;html=1;" parent="1" vertex="1">
          <mxGeometry x="480" y="-190" width="910" height="720" as="geometry" />
        </mxCell>
        <mxCell id="IZAcpLGcn0O7dUQG-KDH-4" value="" style="shape=partialRectangle;whiteSpace=wrap;html=1;right=0;top=0;bottom=0;fillColor=none;routingCenterX=-0.5;dashed=1;dashPattern=8 8;" vertex="1" parent="ZxG8DOypIiTcq-T04Ppu-24">
          <mxGeometry x="-60" y="-30" width="10" height="740" as="geometry" />
        </mxCell>
        <mxCell id="IZAcpLGcn0O7dUQG-KDH-23" style="edgeStyle=orthogonalEdgeStyle;rounded=0;orthogonalLoop=1;jettySize=auto;html=1;exitX=0.5;exitY=0;exitDx=0;exitDy=0;entryX=0.5;entryY=1;entryDx=0;entryDy=0;" edge="1" parent="ZxG8DOypIiTcq-T04Ppu-24" source="IZAcpLGcn0O7dUQG-KDH-16" target="IZAcpLGcn0O7dUQG-KDH-59">
          <mxGeometry relative="1" as="geometry">
            <mxPoint x="99.5" y="377.5" as="targetPoint" />
          </mxGeometry>
        </mxCell>
        <mxCell id="IZAcpLGcn0O7dUQG-KDH-16" value="" style="swimlane;startSize=0;" vertex="1" parent="ZxG8DOypIiTcq-T04Ppu-24">
          <mxGeometry x="40" y="536" width="150" height="144" as="geometry">
            <mxRectangle x="50" y="490" width="50" height="40" as="alternateBounds" />
          </mxGeometry>
        </mxCell>
        <UserObject label="&lt;div style=&quot;font-size: 1px&quot;&gt;&lt;p style=&quot;text-align:center;margin-left:0;margin-right:0;margin-top:0px;margin-bottom:0px;text-indent:0;vertical-align:middle;direction:ltr;&quot;&gt;&lt;span style=&quot;font-size: 14px;&quot;&gt;H5&lt;/span&gt;&lt;br&gt;&lt;/p&gt;&lt;/div&gt;" tags="Background" id="IZAcpLGcn0O7dUQG-KDH-18">
          <mxCell style="verticalAlign=middle;align=center;overflow=width;vsdxID=72;fillColor=#ccffe6;gradientColor=none;shape=stencil(jZHdDoMgDIWfpvdYLpZdO/ceJuJoZGCQ/b39YNXMmcX0rge+Q1sO6Hqy7WgA1ZRiGMyDumRBnwCRvDWRUq5AN6DrPkRzieHmO9ZjW8hSXcO9vPBkHx6LBdWLpfqoM5OO/Io8VFKyUuoHnXuI2LmLZILF+pfd7LXLyieQ77X3r7n4xtGTc5zm+n4bXz7i6HXzBg==);strokeColor=#00cccc;spacingTop=-3;spacingBottom=-3;spacingLeft=-3;spacingRight=-3;points=[];labelBackgroundColor=none;rounded=0;html=1;whiteSpace=wrap;" vertex="1" parent="IZAcpLGcn0O7dUQG-KDH-16">
            <mxGeometry x="13" y="60" width="52" height="60" as="geometry" />
          </mxCell>
        </UserObject>
        <mxCell id="IZAcpLGcn0O7dUQG-KDH-19" value="前端页面" style="text;html=1;align=center;verticalAlign=middle;resizable=0;points=[];autosize=1;strokeColor=none;fillColor=none;fontSize=17;" vertex="1" parent="IZAcpLGcn0O7dUQG-KDH-16">
          <mxGeometry x="25" y="16" width="90" height="30" as="geometry" />
        </mxCell>
        <UserObject label="&lt;div style=&quot;&quot;&gt;&lt;p style=&quot;text-align: center; margin: 0px; text-indent: 0px; vertical-align: middle; direction: ltr;&quot;&gt;&lt;span style=&quot;font-size: 14px;&quot;&gt;T-WDF&lt;/span&gt;&lt;br&gt;&lt;/p&gt;&lt;/div&gt;" tags="Background" id="IZAcpLGcn0O7dUQG-KDH-63">
          <mxCell style="verticalAlign=middle;align=center;overflow=width;vsdxID=72;fillColor=#ccffe6;gradientColor=none;shape=stencil(jZHdDoMgDIWfpvdYLpZdO/ceJuJoZGCQ/b39YNXMmcX0rge+Q1sO6Hqy7WgA1ZRiGMyDumRBnwCRvDWRUq5AN6DrPkRzieHmO9ZjW8hSXcO9vPBkHx6LBdWLpfqoM5OO/Io8VFKyUuoHnXuI2LmLZILF+pfd7LXLyieQ77X3r7n4xtGTc5zm+n4bXz7i6HXzBg==);strokeColor=#00cccc;spacingTop=-3;spacingBottom=-3;spacingLeft=-3;spacingRight=-3;points=[];labelBackgroundColor=none;rounded=0;html=1;whiteSpace=wrap;" vertex="1" parent="IZAcpLGcn0O7dUQG-KDH-16">
            <mxGeometry x="80" y="60" width="52" height="60" as="geometry" />
          </mxCell>
        </UserObject>
        <mxCell id="IZAcpLGcn0O7dUQG-KDH-41" style="edgeStyle=orthogonalEdgeStyle;rounded=0;orthogonalLoop=1;jettySize=auto;html=1;" edge="1" parent="ZxG8DOypIiTcq-T04Ppu-24" source="IZAcpLGcn0O7dUQG-KDH-21" target="IZAcpLGcn0O7dUQG-KDH-33">
          <mxGeometry relative="1" as="geometry">
            <Array as="points">
              <mxPoint x="310" y="190" />
              <mxPoint x="310" y="190" />
            </Array>
          </mxGeometry>
        </mxCell>
        <mxCell id="IZAcpLGcn0O7dUQG-KDH-50" style="edgeStyle=orthogonalEdgeStyle;rounded=0;orthogonalLoop=1;jettySize=auto;html=1;exitX=1;exitY=0.25;exitDx=0;exitDy=0;entryX=0;entryY=0.5;entryDx=0;entryDy=0;" edge="1" parent="ZxG8DOypIiTcq-T04Ppu-24" source="IZAcpLGcn0O7dUQG-KDH-21" target="IZAcpLGcn0O7dUQG-KDH-27">
          <mxGeometry relative="1" as="geometry" />
        </mxCell>
        <mxCell id="IZAcpLGcn0O7dUQG-KDH-21" value="" style="swimlane;startSize=0;dashed=1;fillColor=#d80073;strokeColor=#A50040;fontColor=#ffffff;" vertex="1" parent="ZxG8DOypIiTcq-T04Ppu-24">
          <mxGeometry x="230" y="250" width="261" height="320" as="geometry" />
        </mxCell>
        <mxCell id="ZxG8DOypIiTcq-T04Ppu-20" value="攻击日志分析" style="rounded=1;whiteSpace=wrap;html=1;fontSize=14;fillColor=#d5e8d4;strokeColor=#82b366;" parent="IZAcpLGcn0O7dUQG-KDH-21" vertex="1">
          <mxGeometry x="70.5" y="53" width="120" height="50" as="geometry" />
        </mxCell>
        <mxCell id="ZxG8DOypIiTcq-T04Ppu-21" value="节点管理" style="rounded=1;whiteSpace=wrap;html=1;fontSize=14;fillColor=#d5e8d4;strokeColor=#82b366;" parent="IZAcpLGcn0O7dUQG-KDH-21" vertex="1">
          <mxGeometry x="70.5" y="113" width="120" height="50" as="geometry" />
        </mxCell>
        <mxCell id="IZAcpLGcn0O7dUQG-KDH-22" value="服务层" style="text;html=1;align=center;verticalAlign=middle;resizable=0;points=[];autosize=1;strokeColor=none;fillColor=none;fontSize=17;" vertex="1" parent="IZAcpLGcn0O7dUQG-KDH-21">
          <mxGeometry x="95.5" y="10" width="70" height="30" as="geometry" />
        </mxCell>
        <mxCell id="IZAcpLGcn0O7dUQG-KDH-45" value="防护管理" style="rounded=1;whiteSpace=wrap;html=1;fontSize=14;fillColor=#d5e8d4;strokeColor=#82b366;" vertex="1" parent="IZAcpLGcn0O7dUQG-KDH-21">
          <mxGeometry x="70.5" y="178" width="120" height="50" as="geometry" />
        </mxCell>
        <mxCell id="IZAcpLGcn0O7dUQG-KDH-58" value="&lt;b&gt;&lt;font style=&quot;font-size: 18px;&quot;&gt;......&lt;/font&gt;&lt;/b&gt;" style="rounded=1;whiteSpace=wrap;html=1;fontSize=14;fillColor=#d5e8d4;strokeColor=#82b366;" vertex="1" parent="IZAcpLGcn0O7dUQG-KDH-21">
          <mxGeometry x="70.5" y="240" width="120" height="50" as="geometry" />
        </mxCell>
        <mxCell id="IZAcpLGcn0O7dUQG-KDH-27" value="" style="swimlane;startSize=0;dashed=1;dashPattern=12 12;" vertex="1" parent="ZxG8DOypIiTcq-T04Ppu-24">
          <mxGeometry x="620" y="100" width="200" height="235" as="geometry" />
        </mxCell>
        <mxCell id="IZAcpLGcn0O7dUQG-KDH-28" value="数据库集群" style="text;html=1;align=center;verticalAlign=middle;resizable=0;points=[];autosize=1;strokeColor=none;fillColor=none;strokeWidth=1;fontSize=17;" vertex="1" parent="IZAcpLGcn0O7dUQG-KDH-27">
          <mxGeometry x="45" y="5" width="110" height="30" as="geometry" />
        </mxCell>
        <mxCell id="IZAcpLGcn0O7dUQG-KDH-47" value="TDSQL" style="verticalLabelPosition=bottom;html=1;verticalAlign=top;align=center;strokeColor=none;fillColor=#00BEF2;shape=mxgraph.azure.sql_database;" vertex="1" parent="IZAcpLGcn0O7dUQG-KDH-27">
          <mxGeometry x="130" y="82" width="61" height="59" as="geometry" />
        </mxCell>
        <mxCell id="IZAcpLGcn0O7dUQG-KDH-33" value="" style="swimlane;startSize=0;dashed=1;dashPattern=12 12;fontSize=13;" vertex="1" parent="ZxG8DOypIiTcq-T04Ppu-24">
          <mxGeometry x="261" y="40" width="199" height="100" as="geometry" />
        </mxCell>
        <mxCell id="IZAcpLGcn0O7dUQG-KDH-35" value="P5（T-BERC）" style="rounded=1;whiteSpace=wrap;html=1;fontSize=14;" vertex="1" parent="IZAcpLGcn0O7dUQG-KDH-33">
          <mxGeometry x="34.5" y="28" width="130" height="42" as="geometry" />
        </mxCell>
        <mxCell id="IZAcpLGcn0O7dUQG-KDH-34" value="注册中心" style="text;html=1;align=center;verticalAlign=middle;resizable=0;points=[];autosize=1;strokeColor=none;fillColor=none;fontSize=16;" vertex="1" parent="IZAcpLGcn0O7dUQG-KDH-33">
          <mxGeometry x="54.75" y="-2" width="90" height="30" as="geometry" />
        </mxCell>
        <mxCell id="IZAcpLGcn0O7dUQG-KDH-42" style="edgeStyle=orthogonalEdgeStyle;rounded=0;orthogonalLoop=1;jettySize=auto;html=1;exitX=0.75;exitY=1;exitDx=0;exitDy=0;entryX=0.693;entryY=0;entryDx=0;entryDy=0;entryPerimeter=0;" edge="1" parent="ZxG8DOypIiTcq-T04Ppu-24" source="IZAcpLGcn0O7dUQG-KDH-33" target="IZAcpLGcn0O7dUQG-KDH-21">
          <mxGeometry relative="1" as="geometry" />
        </mxCell>
        <mxCell id="IZAcpLGcn0O7dUQG-KDH-43" value="注册&lt;div style=&quot;font-size: 15px;&quot;&gt;服务&lt;/div&gt;" style="text;html=1;align=center;verticalAlign=middle;whiteSpace=wrap;rounded=0;fontSize=15;" vertex="1" parent="ZxG8DOypIiTcq-T04Ppu-24">
          <mxGeometry x="261" y="175" width="59" height="50" as="geometry" />
        </mxCell>
        <mxCell id="IZAcpLGcn0O7dUQG-KDH-44" value="&lt;div style=&quot;font-size: 15px;&quot;&gt;获取&lt;/div&gt;&lt;div style=&quot;font-size: 15px;&quot;&gt;服务&lt;/div&gt;" style="text;html=1;align=center;verticalAlign=middle;whiteSpace=wrap;rounded=0;fontSize=15;" vertex="1" parent="ZxG8DOypIiTcq-T04Ppu-24">
          <mxGeometry x="401" y="175" width="59" height="50" as="geometry" />
        </mxCell>
        <mxCell id="IZAcpLGcn0O7dUQG-KDH-48" style="edgeStyle=orthogonalEdgeStyle;rounded=0;orthogonalLoop=1;jettySize=auto;html=1;exitX=1;exitY=0.5;exitDx=0;exitDy=0;entryX=0;entryY=0.5;entryDx=0;entryDy=0;" edge="1" parent="ZxG8DOypIiTcq-T04Ppu-24" source="IZAcpLGcn0O7dUQG-KDH-21" target="IZAcpLGcn0O7dUQG-KDH-53">
          <mxGeometry relative="1" as="geometry" />
        </mxCell>
        <mxCell id="IZAcpLGcn0O7dUQG-KDH-52" value="&lt;font style=&quot;font-size: 16px;&quot;&gt;文件服务&lt;/font&gt;" style="sketch=0;points=[[0,0,0],[0.25,0,0],[0.5,0,0],[0.75,0,0],[1,0,0],[0,1,0],[0.25,1,0],[0.5,1,0],[0.75,1,0],[1,1,0],[0,0.25,0],[0,0.5,0],[0,0.75,0],[1,0.25,0],[1,0.5,0],[1,0.75,0]];outlineConnect=0;fontColor=#232F3E;fillColor=#7AA116;strokeColor=#ffffff;dashed=0;verticalLabelPosition=bottom;verticalAlign=top;align=center;html=1;fontSize=12;fontStyle=0;aspect=fixed;shape=mxgraph.aws4.resourceIcon;resIcon=mxgraph.aws4.elastic_file_system;" vertex="1" parent="ZxG8DOypIiTcq-T04Ppu-24">
          <mxGeometry x="660" y="540" width="78" height="78" as="geometry" />
        </mxCell>
        <mxCell id="IZAcpLGcn0O7dUQG-KDH-53" value="" style="swimlane;startSize=0;" vertex="1" parent="ZxG8DOypIiTcq-T04Ppu-24">
          <mxGeometry x="640" y="385" width="200" height="125" as="geometry" />
        </mxCell>
        <mxCell id="IZAcpLGcn0O7dUQG-KDH-46" value="CRedis" style="outlineConnect=0;dashed=0;verticalLabelPosition=bottom;verticalAlign=top;align=center;html=1;shape=mxgraph.aws3.redis;fillColor=#2E73B8;gradientColor=none;" vertex="1" parent="IZAcpLGcn0O7dUQG-KDH-53">
          <mxGeometry x="20" y="36" width="60" height="63" as="geometry" />
        </mxCell>
        <mxCell id="IZAcpLGcn0O7dUQG-KDH-55" value="CRedis" style="outlineConnect=0;dashed=0;verticalLabelPosition=bottom;verticalAlign=top;align=center;html=1;shape=mxgraph.aws3.redis;fillColor=#2E73B8;gradientColor=none;" vertex="1" parent="IZAcpLGcn0O7dUQG-KDH-53">
          <mxGeometry x="120" y="36" width="60" height="63" as="geometry" />
        </mxCell>
        <mxCell id="IZAcpLGcn0O7dUQG-KDH-49" value="缓存集群" style="text;html=1;align=center;verticalAlign=middle;whiteSpace=wrap;rounded=0;fontSize=17;" vertex="1" parent="IZAcpLGcn0O7dUQG-KDH-53">
          <mxGeometry x="65" y="9" width="70" height="20" as="geometry" />
        </mxCell>
        <mxCell id="IZAcpLGcn0O7dUQG-KDH-56" style="edgeStyle=orthogonalEdgeStyle;rounded=0;orthogonalLoop=1;jettySize=auto;html=1;exitX=1;exitY=0.75;exitDx=0;exitDy=0;entryX=0;entryY=0.5;entryDx=0;entryDy=0;entryPerimeter=0;" edge="1" parent="ZxG8DOypIiTcq-T04Ppu-24" source="IZAcpLGcn0O7dUQG-KDH-21" target="IZAcpLGcn0O7dUQG-KDH-52">
          <mxGeometry relative="1" as="geometry" />
        </mxCell>
        <mxCell id="IZAcpLGcn0O7dUQG-KDH-61" style="edgeStyle=orthogonalEdgeStyle;rounded=0;orthogonalLoop=1;jettySize=auto;html=1;" edge="1" parent="ZxG8DOypIiTcq-T04Ppu-24" source="IZAcpLGcn0O7dUQG-KDH-59" target="IZAcpLGcn0O7dUQG-KDH-21">
          <mxGeometry relative="1" as="geometry" />
        </mxCell>
        <mxCell id="IZAcpLGcn0O7dUQG-KDH-59" value="" style="swimlane;startSize=0;" vertex="1" parent="ZxG8DOypIiTcq-T04Ppu-24">
          <mxGeometry x="30" y="104" width="110" height="230" as="geometry" />
        </mxCell>
        <mxCell id="IZAcpLGcn0O7dUQG-KDH-60" value="&lt;font style=&quot;font-size: 16px;&quot;&gt;API网关&lt;/font&gt;" style="text;html=1;align=center;verticalAlign=middle;resizable=0;points=[];autosize=1;strokeColor=none;fillColor=none;" vertex="1" parent="IZAcpLGcn0O7dUQG-KDH-59">
          <mxGeometry x="15" width="80" height="30" as="geometry" />
        </mxCell>
        <mxCell id="IZAcpLGcn0O7dUQG-KDH-67" value="员工鉴权（P2）" style="whiteSpace=wrap;html=1;" vertex="1" parent="IZAcpLGcn0O7dUQG-KDH-59">
          <mxGeometry x="15" y="46" width="90" height="40" as="geometry" />
        </mxCell>
        <mxCell id="IZAcpLGcn0O7dUQG-KDH-64" value="TDMQ" style="sketch=0;points=[[0,0,0],[0.25,0,0],[0.5,0,0],[0.75,0,0],[1,0,0],[0,1,0],[0.25,1,0],[0.5,1,0],[0.75,1,0],[1,1,0],[0,0.25,0],[0,0.5,0],[0,0.75,0],[1,0.25,0],[1,0.5,0],[1,0.75,0]];outlineConnect=0;fontColor=#232F3E;fillColor=#E7157B;strokeColor=#ffffff;dashed=0;verticalLabelPosition=bottom;verticalAlign=top;align=center;html=1;fontSize=16;fontStyle=0;aspect=fixed;shape=mxgraph.aws4.resourceIcon;resIcon=mxgraph.aws4.mq;" vertex="1" parent="ZxG8DOypIiTcq-T04Ppu-24">
          <mxGeometry x="450" y="602" width="78" height="78" as="geometry" />
        </mxCell>
        <mxCell id="IZAcpLGcn0O7dUQG-KDH-65" style="edgeStyle=orthogonalEdgeStyle;rounded=0;orthogonalLoop=1;jettySize=auto;html=1;exitX=0.5;exitY=1;exitDx=0;exitDy=0;entryX=0;entryY=0.5;entryDx=0;entryDy=0;entryPerimeter=0;" edge="1" parent="ZxG8DOypIiTcq-T04Ppu-24" source="IZAcpLGcn0O7dUQG-KDH-21" target="IZAcpLGcn0O7dUQG-KDH-64">
          <mxGeometry relative="1" as="geometry" />
        </mxCell>
        <mxCell id="IZAcpLGcn0O7dUQG-KDH-30" style="edgeStyle=orthogonalEdgeStyle;rounded=0;orthogonalLoop=1;jettySize=auto;html=1;entryX=0;entryY=0.5;entryDx=0;entryDy=0;" edge="1" parent="1" source="ZxG8DOypIiTcq-T04Ppu-1" target="IZAcpLGcn0O7dUQG-KDH-59">
          <mxGeometry relative="1" as="geometry">
            <mxPoint x="281" y="284" as="sourcePoint" />
            <mxPoint x="540" y="73.75" as="targetPoint" />
          </mxGeometry>
        </mxCell>
        <mxCell id="ZxG8DOypIiTcq-T04Ppu-32" value="HTTP" style="text;html=1;align=center;verticalAlign=middle;whiteSpace=wrap;rounded=0;" parent="1" vertex="1">
          <mxGeometry x="310" y="-80" width="100" height="30" as="geometry" />
        </mxCell>
        <mxCell id="IZAcpLGcn0O7dUQG-KDH-20" style="edgeStyle=orthogonalEdgeStyle;rounded=0;orthogonalLoop=1;jettySize=auto;html=1;" edge="1" parent="1" source="IZAcpLGcn0O7dUQG-KDH-9" target="IZAcpLGcn0O7dUQG-KDH-16">
          <mxGeometry relative="1" as="geometry" />
        </mxCell>
        <UserObject label="&lt;div style=&quot;font-size: 1px&quot;&gt;&lt;p style=&quot;text-align:center;margin-left:0;margin-right:0;margin-top:0px;margin-bottom:0px;text-indent:0;vertical-align:middle;direction:ltr;&quot;&gt;&lt;font style=&quot;font-size:12px;font-family:0;color:#000000;direction:ltr;letter-spacing:0px;line-height:120%;opacity:1&quot;&gt;web&lt;/font&gt;&lt;/p&gt;&lt;/div&gt;" tags="Background" id="IZAcpLGcn0O7dUQG-KDH-9">
          <mxCell style="verticalAlign=middle;align=center;overflow=width;vsdxID=21;fillColor=none;gradientColor=none;image;aspect=fixed;image=data:image/png,iVBORw0KGgoAAAANSUhEUgAAAFAAAABKCAYAAAAsXNNQAAAAAXNSR0IArs4c6QAAAuRJREFUeF7t3D9oE3EcBfD3veaCQppYEFx1cHDQRnBXIVkcFd06iCBOjq7W0bEIioPiXHEWTKyCo4uTU6Gi4OAftEkGtcl95ZL+lURz964JNu+WNum9793v05ceN/QMG1ttdR5mNzdf65tBAo/hnbuozryMd7DuXvWGyyuhgPstVEvzhnrjPoCrCePaPRaIcDkGVPtS18E+CjA1Xi8owF0D9M5ZcvbeitvUi34LGtzAGHD9Ur23JFKuZsC1QoDDegpwWKkB+wlQgKQAGVcDBUgKkHE1UICkABlXAwVICpBxNVCApAAZVwMFSAqQcTVQgKQAGVcDBUgKkHE1UICkABlXAwVICpBxNVCApAAZVwMFSAqQcTVQgKQAGVcDBUgKkHE1UICkABlXAwVICpBxNVCApAAZVwMFSAqQcTVQgKQAGVcDBUgKkHE1UICkABlP3ECg+0wAbZsCZ/pZ6P+FyYYIMAPAFQCHyTmTGn8UN/AGgNuTKkCs+x0qxSO958Y8b16E+yIxbMKi9gaV6ZPxonuA8VZrHQc6FxJLGAK4hTCEgIdwhAiCHNxDYNv7kecBhDALAWT/PAazJURRG2ZrANa6X/98Hb/vvv3nneTrtQ+oFB9s5LYAE09KGXj2/RqC4F7K9OBYpTj6texoYOYrGjCw9uUYLP8208O5L6NaOprpzCGHjeW3hnrjJ4D4I53V9hSV4rmshiWZMybA1deAnUpyon/d1/0OqqXrmc1LMGhMgI34ITZ9b40SnPvWrutPUkuVJUMC/O8Aa83zMH9CnvfO+MQ0cKk1iyiqAziYKWA8zHEF1eLDzOf+Y+BoPsL11glYNAfHHIBDu7dIW0CYW8Dp/fH9/Ug2HnDRpzDzrYBgXwHWLqAdTcO8AARlmM0CVga8PJLV9A7yCbBXMH8P2AoQLQP4ilzQxI9fLeSDJj4faOKSJb8L6bOI5ID1jK+gI5Tteyjy76cABUhWWIACJAXIONnA3yi+Sc3vWnE5AAAAAElFTkSuQmCC;strokeColor=none;strokeWidth=0;points=[];labelBackgroundColor=none;rounded=0;html=1;whiteSpace=wrap;" vertex="1" parent="1">
            <mxGeometry x="141" y="384" width="80" height="74" as="geometry" />
          </mxCell>
        </UserObject>
        <mxCell id="IZAcpLGcn0O7dUQG-KDH-29" value="HTTPS" style="text;html=1;align=center;verticalAlign=middle;whiteSpace=wrap;rounded=0;" vertex="1" parent="1">
          <mxGeometry x="281" y="380" width="100" height="30" as="geometry" />
        </mxCell>
        <mxCell id="IZAcpLGcn0O7dUQG-KDH-51" value="TDSQL" style="verticalLabelPosition=bottom;html=1;verticalAlign=top;align=center;strokeColor=none;fillColor=#00BEF2;shape=mxgraph.azure.sql_database;" vertex="1" parent="1">
          <mxGeometry x="1139" y="-60" width="61" height="59" as="geometry" />
        </mxCell>
      </root>
    </mxGraphModel>
  </diagram>
</mxfile>
